<svg width="18" height="18" viewBox="0 0 18 18" fill="none" xmlns="http://www.w3.org/2000/svg">
<rect width="18" height="18" rx="2" fill="url(#paint0_radial_122_7689)"/>
<g filter="url(#filter0_d_122_7689)">
<path fill-rule="evenodd" clip-rule="evenodd" d="M8.98054 14.2919C6.74679 12.3385 5.02074 10.2138 5.02074 8.01036C5.02074 5.80694 6.80694 4.02074 9.01036 4.02074C11.2138 4.02074 13 5.80694 13 8.01036C13 10.2138 11.2579 12.3591 8.98054 14.2919ZM8.34472 5.39706C7.945 5.31079 7.55192 5.56904 7.46673 5.9739L6.71371 9.55256C6.62852 9.95743 6.88348 10.3556 7.2832 10.4419C7.68292 10.5282 8.076 10.2699 8.16119 9.86504L8.91421 6.28636C8.9994 5.88152 8.74443 5.48335 8.34472 5.39706ZM11.2463 9.31604L10.4339 7.89081L10.7719 6.28333C10.857 5.87844 10.6019 5.48035 10.2022 5.39414C9.80247 5.30794 9.40941 5.56625 9.3243 5.97114L8.93365 7.82943C8.9114 7.93529 8.91259 8.04063 8.93334 8.14009C8.94536 8.23602 8.97598 8.33116 9.0267 8.42015L9.96461 10.0656C10.169 10.424 10.6215 10.5469 10.9755 10.3399C11.3294 10.1329 11.4507 9.67453 11.2463 9.31604Z" fill="#FBFEFF"/>
</g>
<defs>
<filter id="filter0_d_122_7689" x="3.02074" y="3.02074" width="11.9793" height="14.2712" filterUnits="userSpaceOnUse" color-interpolation-filters="sRGB">
<feFlood flood-opacity="0" result="BackgroundImageFix"/>
<feColorMatrix in="SourceAlpha" type="matrix" values="0 0 0 0 0 0 0 0 0 0 0 0 0 0 0 0 0 0 127 0" result="hardAlpha"/>
<feOffset dy="1"/>
<feGaussianBlur stdDeviation="1"/>
<feComposite in2="hardAlpha" operator="out"/>
<feColorMatrix type="matrix" values="0 0 0 0 0.054902 0 0 0 0 0.156863 0 0 0 0 0.415686 0 0 0 0.5 0"/>
<feBlend mode="normal" in2="BackgroundImageFix" result="effect1_dropShadow_122_7689"/>
<feBlend mode="normal" in="SourceGraphic" in2="effect1_dropShadow_122_7689" result="shape"/>
</filter>
<radialGradient id="paint0_radial_122_7689" cx="0" cy="0" r="1" gradientUnits="userSpaceOnUse" gradientTransform="translate(0.500001 0.499999) rotate(47.0214) scale(30.0707)">
<stop stop-color="#4CA9DF"/>
<stop offset="1" stop-color="#292E91"/>
</radialGradient>
</defs>
</svg>
