<svg width="21" height="20" viewBox="0 0 21 20" fill="none" xmlns="http://www.w3.org/2000/svg">
<path d="M17.93 10.98C17.97 10.66 18 10.34 18 10C18 9.66 17.97 9.34 17.93 9.02L20.04 7.37C20.23 7.22 20.28 6.95 20.16 6.73L18.16 3.27C18.07 3.11 17.9 3.02 17.72 3.02C17.66 3.02 17.6 3.03 17.55 3.05L15.06 4.05C14.54 3.65 13.98 3.32 13.37 3.07L12.99 0.42C12.96 0.18 12.75 0 12.5 0H8.50001C8.25001 0 8.04001 0.18 8.01001 0.42L7.63001 3.07C7.02001 3.32 6.46001 3.66 5.94001 4.05L3.45001 3.05C3.39001 3.03 3.33001 3.02 3.27001 3.02C3.10001 3.02 2.93001 3.11 2.84001 3.27L0.840007 6.73C0.710007 6.95 0.770007 7.22 0.960007 7.37L3.07001 9.02C3.03001 9.34 3.00001 9.67 3.00001 10C3.00001 10.33 3.03001 10.66 3.07001 10.98L0.960007 12.63C0.770007 12.78 0.720007 13.05 0.840007 13.27L2.84001 16.73C2.93001 16.89 3.10001 16.98 3.28001 16.98C3.34001 16.98 3.40001 16.97 3.45001 16.95L5.94001 15.95C6.46001 16.35 7.02001 16.68 7.63001 16.93L8.01001 19.58C8.04001 19.82 8.25001 20 8.50001 20H12.5C12.75 20 12.96 19.82 12.99 19.58L13.37 16.93C13.98 16.68 14.54 16.34 15.06 15.95L17.55 16.95C17.61 16.97 17.67 16.98 17.73 16.98C17.9 16.98 18.07 16.89 18.16 16.73L20.16 13.27C20.28 13.05 20.23 12.78 20.04 12.63L17.93 10.98ZM15.95 9.27C15.99 9.58 16 9.79 16 10C16 10.21 15.98 10.43 15.95 10.73L15.81 11.86L16.7 12.56L17.78 13.4L17.08 14.61L15.81 14.1L14.77 13.68L13.87 14.36C13.44 14.68 13.03 14.92 12.62 15.09L11.56 15.52L11.4 16.65L11.2 18H9.80001L9.61001 16.65L9.45001 15.52L8.39001 15.09C7.96001 14.91 7.56001 14.68 7.16001 14.38L6.25001 13.68L5.19001 14.11L3.92001 14.62L3.22001 13.41L4.30001 12.57L5.19001 11.87L5.05001 10.74C5.02001 10.43 5.00001 10.2 5.00001 10C5.00001 9.8 5.02001 9.57 5.05001 9.27L5.19001 8.14L4.30001 7.44L3.22001 6.6L3.92001 5.39L5.19001 5.9L6.23001 6.32L7.13001 5.64C7.56001 5.32 7.97001 5.08 8.38001 4.91L9.44001 4.48L9.60001 3.35L9.80001 2H11.19L11.38 3.35L11.54 4.48L12.6 4.91C13.03 5.09 13.43 5.32 13.83 5.62L14.74 6.32L15.8 5.89L17.07 5.38L17.77 6.59L16.7 7.44L15.81 8.14L15.95 9.27ZM10.5 6C8.29001 6 6.50001 7.79 6.50001 10C6.50001 12.21 8.29001 14 10.5 14C12.71 14 14.5 12.21 14.5 10C14.5 7.79 12.71 6 10.5 6ZM10.5 12C9.40001 12 8.50001 11.1 8.50001 10C8.50001 8.9 9.40001 8 10.5 8C11.6 8 12.5 8.9 12.5 10C12.5 11.1 11.6 12 10.5 12Z" fill="#49454F"/>
</svg>
