<svg width="56" height="68" viewBox="0 0 56 68" fill="none" xmlns="http://www.w3.org/2000/svg">
<g clip-path="url(#clip0_8_4839)" filter="url(#filter0_dd_8_4839)">
<path d="M28 8C20.26 8 14 14.26 14 22C14 32.5 28 48 28 48C28 48 42 32.5 42 22C42 14.26 35.74 8 28 8Z" fill="#22659A"/>
<circle cx="28" cy="22" r="10" fill="#FBFEFF"/>
<g clip-path="url(#clip1_8_4839)">
<path d="M24.2083 27.8333V23.4583H23.3333V20.25C23.3333 19.6083 23.8583 19.0833 24.5 19.0833H26.25C26.8917 19.0833 27.4167 19.6083 27.4167 20.25V23.4583H26.5417V27.8333H24.2083ZM31.5 27.8333V24.3333H33.25L31.7683 19.8825C31.605 19.4042 31.1617 19.0833 30.66 19.0833H30.59C30.0883 19.0833 29.6392 19.4042 29.4817 19.8825L28 24.3333H29.75V27.8333H31.5ZM25.375 18.5C26.0225 18.5 26.5417 17.9808 26.5417 17.3333C26.5417 16.6858 26.0225 16.1667 25.375 16.1667C24.7275 16.1667 24.2083 16.6858 24.2083 17.3333C24.2083 17.9808 24.7275 18.5 25.375 18.5ZM30.625 18.5C31.2725 18.5 31.7917 17.9808 31.7917 17.3333C31.7917 16.6858 31.2725 16.1667 30.625 16.1667C29.9775 16.1667 29.4583 16.6858 29.4583 17.3333C29.4583 17.9808 29.9775 18.5 30.625 18.5Z" fill="#22659A"/>
</g>
</g>
<defs>
<filter id="filter0_dd_8_4839" x="-10" y="-4" width="76" height="76" filterUnits="userSpaceOnUse" color-interpolation-filters="sRGB">
<feFlood flood-opacity="0" result="BackgroundImageFix"/>
<feColorMatrix in="SourceAlpha" type="matrix" values="0 0 0 0 0 0 0 0 0 0 0 0 0 0 0 0 0 0 127 0" result="hardAlpha"/>
<feOffset dy="2"/>
<feGaussianBlur stdDeviation="1.5"/>
<feColorMatrix type="matrix" values="0 0 0 0 0 0 0 0 0 0 0 0 0 0 0 0 0 0 0.3 0"/>
<feBlend mode="normal" in2="BackgroundImageFix" result="effect1_dropShadow_8_4839"/>
<feColorMatrix in="SourceAlpha" type="matrix" values="0 0 0 0 0 0 0 0 0 0 0 0 0 0 0 0 0 0 127 0" result="hardAlpha"/>
<!-- <feMorphology radius="4" operator="dilate" in="SourceAlpha" result="effect2_dropShadow_8_4839"/> -->
<!-- <feOffset dy="6"/> -->
<!-- <feGaussianBlur stdDeviation="5"/> -->
<feColorMatrix type="matrix" values="0 0 0 0 0 0 0 0 0 0 0 0 0 0 0 0 0 0 0.15 0"/>
<!-- <feBlend mode="normal" in2="effect1_dropShadow_8_4839" result="effect2_dropShadow_8_4839"/> -->
<feBlend mode="normal" in="SourceGraphic" in2="effect2_dropShadow_8_4839" result="shape"/>
</filter>
<clipPath id="clip0_8_4839">
<rect width="48" height="48" fill="white" transform="translate(4 4)"/>
</clipPath>
<clipPath id="clip1_8_4839">
<rect width="14" height="14" fill="white" transform="translate(21 15)"/>
</clipPath>
</defs>
</svg>
