<svg width="20" height="22" viewBox="0 0 20 22" fill="none" xmlns="http://www.w3.org/2000/svg">
<path d="M16.5 0V3H19.5V5H16.5V8H14.5V5H11.5V3H14.5V0H16.5ZM8.5 12C7.4 12 6.5 11.1 6.5 10C6.5 8.9 7.4 8 8.5 8C9.6 8 10.5 8.9 10.5 10C10.5 11.1 9.6 12 8.5 12ZM9.5 2.06V4.08C9.16921 4.02773 8.83489 4.00098 8.5 4C5.15 4 2.5 6.57 2.5 10.2C2.5 12.54 4.45 15.64 8.5 19.34C12.55 15.64 14.5 12.55 14.5 10.2V10H16.5V10.2C16.5 13.52 13.83 17.45 8.5 22C3.17 17.45 0.5 13.52 0.5 10.2C0.5 5.22 4.3 2 8.5 2C8.84 2 9.17 2.02 9.5 2.06Z" fill="#49454F"/>
</svg>
