<svg width="15" height="18" viewBox="0 0 15 18" fill="none" xmlns="http://www.w3.org/2000/svg">
<path d="M7.25 17.6925V14.9925C3.4925 14.7975 0.5 11.6775 0.5 7.875C0.5 3.945 3.695 0.75 7.625 0.75C11.555 0.75 14.75 3.945 14.75 7.875C14.75 11.5875 12.17 15.3225 8.3225 17.175L7.25 17.6925ZM7.625 2.25C4.52 2.25 2 4.77 2 7.875C2 10.98 4.52 13.5 7.625 13.5H8.75V15.225C11.48 13.5 13.25 10.665 13.25 7.875C13.25 4.77 10.73 2.25 7.625 2.25ZM6.875 10.875H8.375V12.375H6.875V10.875ZM8.375 9.75H6.875C6.875 7.3125 9.125 7.5 9.125 6C9.125 5.175 8.45 4.5 7.625 4.5C6.8 4.5 6.125 5.175 6.125 6H4.625C4.625 4.3425 5.9675 3 7.625 3C9.2825 3 10.625 4.3425 10.625 6C10.625 7.875 8.375 8.0625 8.375 9.75Z" fill="#49454F"/>
</svg>
