<svg width="14" height="14" viewBox="0 0 14 14" fill="none" xmlns="http://www.w3.org/2000/svg">
<g clip-path="url(#clip0_435_8118)">
<path d="M3.20831 12.8333V8.45834H2.33331V5.25001C2.33331 4.60834 2.85831 4.08334 3.49998 4.08334H5.24998C5.89165 4.08334 6.41665 4.60834 6.41665 5.25001V8.45834H5.54165V12.8333H3.20831ZM10.5 12.8333V9.33334H12.25L10.7683 4.88251C10.605 4.40417 10.1616 4.08334 9.65998 4.08334H9.58998C9.08831 4.08334 8.63915 4.40417 8.48165 4.88251L6.99998 9.33334H8.74998V12.8333H10.5ZM4.37498 3.50001C5.02248 3.50001 5.54165 2.98084 5.54165 2.33334C5.54165 1.68584 5.02248 1.16667 4.37498 1.16667C3.72748 1.16667 3.20831 1.68584 3.20831 2.33334C3.20831 2.98084 3.72748 3.50001 4.37498 3.50001ZM9.62498 3.50001C10.2725 3.50001 10.7916 2.98084 10.7916 2.33334C10.7916 1.68584 10.2725 1.16667 9.62498 1.16667C8.97748 1.16667 8.45831 1.68584 8.45831 2.33334C8.45831 2.98084 8.97748 3.50001 9.62498 3.50001Z" fill="#B8B8B8"/>
</g>
<defs>
<clipPath id="clip0_435_8118">
<rect width="14" height="14" fill="white"/>
</clipPath>
</defs>
</svg>
