<svg width="14" height="18" viewBox="0 0 14 18" fill="none" xmlns="http://www.w3.org/2000/svg">
<path d="M7 0.75L0.25 3.75V8.25C0.25 12.4125 3.13 16.305 7 17.25C10.87 16.305 13.75 12.4125 13.75 8.25V3.75L7 0.75ZM12.25 8.25C12.25 9.6375 11.8675 10.9875 11.215 12.1575L10.1275 11.07C11.095 9.615 10.93 7.635 9.6475 6.3525C8.185 4.89 5.8075 4.89 4.345 6.3525C2.8825 7.815 2.8825 10.1925 4.345 11.655C5.6275 12.9375 7.6075 13.095 9.0625 12.135L10.3525 13.425C9.46 14.49 8.305 15.3075 7 15.705C3.985 14.7675 1.75 11.64 1.75 8.25V4.725L7 2.3925L12.25 4.725V8.25ZM7 11.25C5.755 11.25 4.75 10.245 4.75 9C4.75 7.755 5.755 6.75 7 6.75C8.245 6.75 9.25 7.755 9.25 9C9.25 10.245 8.245 11.25 7 11.25Z" fill="#49454F"/>
</svg>
