<svg width="18" height="16" viewBox="0 0 18 16" fill="none" xmlns="http://www.w3.org/2000/svg">
<path d="M17.25 7.9925L15.42 5.9L15.675 3.1325L12.9675 2.5175L11.55 0.125L9 1.22L6.45 0.125L5.0325 2.5175L2.325 3.125L2.58 5.9L0.75 7.9925L2.58 10.085L2.325 12.86L5.0325 13.475L6.45 15.875L9 14.7725L11.55 15.8675L12.9675 13.475L15.675 12.86L15.42 10.0925L17.25 7.9925ZM14.2875 9.1025L13.8675 9.59L13.9275 10.2275L14.0625 11.69L12.6375 12.0125L12.0075 12.155L11.6775 12.71L10.935 13.97L9.6 13.3925L9 13.1375L8.4075 13.3925L7.0725 13.97L6.33 12.7175L6 12.1625L5.37 12.02L3.945 11.6975L4.08 10.2275L4.14 9.59L3.72 9.1025L2.7525 8L3.72 6.89L4.14 6.4025L4.0725 5.7575L3.9375 4.3025L5.3625 3.98L5.9925 3.8375L6.3225 3.2825L7.065 2.0225L8.4 2.6L9 2.855L9.5925 2.6L10.9275 2.0225L11.67 3.2825L12 3.8375L12.63 3.98L14.055 4.3025L13.92 5.765L13.86 6.4025L14.28 6.89L15.2475 7.9925L14.2875 9.1025Z" fill="#1C1B1F"/>
<path d="M7.56753 9.31253L5.82753 7.56503L4.71753 8.68253L7.56753 11.54L13.0725 6.02003L11.9625 4.90253L7.56753 9.31253Z" fill="#1C1B1F"/>
</svg>
