<svg width="60" height="68" viewBox="0 0 60 68" fill="none" xmlns="http://www.w3.org/2000/svg">
<path fill-rule="evenodd" clip-rule="evenodd" d="M21.2648 0.260813C16.1052 -0.892646 11.0313 2.56021 9.93172 7.97338L0.211787 55.8211C-0.887835 61.2343 2.40321 66.5575 7.56279 67.7113C12.7224 68.8651 17.7962 65.4119 18.8959 59.999L28.6158 12.151C29.7154 6.73811 26.4244 1.41456 21.2648 0.260813ZM58.7186 52.6588L48.2323 33.603L52.5943 12.1105C53.6928 6.69706 50.4006 1.37438 45.241 0.221785C40.0815 -0.930807 35.0078 2.52292 33.9093 7.93638L28.8667 32.7823C28.5795 34.1977 28.5949 35.6061 28.8628 36.9359C29.018 38.2186 29.4132 39.4906 30.0679 40.6805L42.1744 62.68C44.8121 67.4731 50.654 69.1154 55.2225 66.3483C59.7912 63.5808 61.3563 57.4519 58.7186 52.6588Z" fill="#FBFEFF"/>
</svg>
